<svg version="1.0" xmlns="http://www.w3.org/2000/svg"  width="1000.000000pt" height="375.000000pt" viewBox="0 0 300.000000 112.000000"  preserveAspectRatio="xMidYMid slice">  <g transform="translate(0.000000,39.000000) scale(0.050000,-0.050000)" fill="#000000" stroke="none"> <path d="M3060 697 c-412 -118 -350 -731 68 -668 158 23 332 209 332 355 0 51 -328 55 -348 4 -32 -84 -14 -128 53 -129 l65 0 -47 -40 c-106 -88 -214 -13 -197 138 18 158 196 252 258 136 l26 -48 85 37 c221 95 -42 286 -295 215z m259 -46 c51 -27 81 -68 81 -111 0 -49 -113 -54 -155 -8 -113 127 -341 -64 -295 -248 32 -130 167 -168 261 -75 65 65 62 91 -12 91 -53 0 -61 7 -55 45 10 70 276 81 276 11 -1 -210 -345 -383 -507 -255 -288 227 77 720 406 550z"/> <path d="M4420 697 c-297 -85 -389 -522 -134 -638 236 -107 534 80 534 334 0 43 -331 38 -348 -5 -32 -84 -14 -128 53 -129 l65 0 -47 -40 c-133 -110 -260 52 -173 221 56 107 193 139 232 53 21 -46 23 -46 110 -15 237 85 -38 291 -292 219z m259 -46 c51 -27 81 -68 81 -111 0 -49 -113 -54 -155 -8 -113 127 -341 -64 -295 -248 32 -130 167 -168 261 -75 65 65 62 91 -12 91 -53 0 -61 7 -55 45 9 67 276 82 276 15 0 -238 -365 -399 -530 -234 -242 242 119 685 429 525z"/> <path d="M229 376 c-198 -368 -191 -336 -82 -336 73 0 90 8 109 50 35 76 257 76 276 0 11 -44 23 -50 102 -50 75 0 87 5 78 35 -9 29 -132 603 -132 615 0 2 -41 3 -91 2 l-91 -2 -169 -314z m254 -25 c7 -77 5 -80 -58 -85 -77 -7 -79 5 -21 124 49 99 68 90 79 -39z"/> <path d="M853 645 c-6 -30 -25 -154 -43 -275 -17 -121 -37 -245 -43 -276 -11 -56 -9 -56 75 -50 l86 6 45 290 c60 384 63 360 -31 360 -70 0 -80 -6 -89 -55z"/> <path d="M1211 675 c-13 -39 -91 -553 -91 -596 0 -79 176 -54 189 26 59 354 91 553 91 572 0 32 -179 30 -189 -2z m149 -30 c0 -8 -19 -139 -42 -290 l-43 -275 -64 0 -65 0 47 285 c25 157 46 287 46 290 2 13 121 3 121 -10z"/> <path d="M1432 397 c-53 -167 -101 -316 -107 -332 -8 -21 11 -26 87 -21 l98 6 36 120 c57 185 58 187 79 100 55 -232 55 -233 101 -226 30 4 69 51 128 156 l86 150 0 -155 0 -155 169 0 c169 0 170 0 201 60 47 91 220 91 240 0 12 -57 19 -60 112 -60 116 0 113 -32 30 350 l-65 300 -99 6 -100 6 -93 -176 c-51 -97 -121 -225 -155 -286 l-62 -110 6 280 6 280 -94 6 -94 6 -71 -141 c-89 -175 -99 -175 -130 -1 l-25 140 -94 0 -95 0 -95 -303z m293 94 c20 -87 39 -162 43 -166 4 -4 50 70 101 164 89 164 96 171 162 171 l69 0 0 -290 0 -290 -71 0 -71 0 14 170 c17 217 -2 217 -124 0 -116 -208 -134 -210 -178 -25 -49 211 -53 221 -69 202 -8 -9 -36 -91 -63 -182 -48 -164 -48 -165 -115 -165 -45 0 -63 8 -57 25 6 14 49 145 96 291 l86 266 70 -6 71 -6 36 -159z m875 161 c0 -4 27 -127 60 -272 73 -323 74 -300 -9 -300 -56 0 -69 8 -75 45 -10 74 -246 79 -279 6 -18 -40 -38 -51 -90 -51 -85 0 -92 -27 86 300 l152 280 78 0 c42 0 77 -4 77 -8z"/> <path d="M2430 401 c-63 -126 -65 -121 33 -121 l82 0 -12 75 c-7 41 -13 91 -13 110 0 64 -39 36 -90 -64z m74 -41 c8 -52 3 -60 -38 -60 -46 0 -46 2 -16 60 17 33 34 60 38 60 4 0 11 -27 16 -60z"/> <path d="M3530 675 c-10 -33 -90 -565 -90 -604 0 -41 357 -46 369 -6 40 129 37 135 -55 135 -97 0 -116 10 -100 52 6 18 41 28 96 28 90 0 109 23 110 135 0 40 -10 45 -89 45 -127 0 -104 56 26 64 88 6 158 114 106 166 -23 23 -364 10 -373 -15z m342 -47 c-7 -17 -12 -39 -12 -49 0 -9 -43 -20 -95 -23 -138 -9 -163 -136 -26 -136 133 0 121 -95 -14 -104 -146 -9 -162 -136 -16 -136 91 0 110 -19 74 -76 -12 -18 -60 -24 -166 -20 l-149 6 45 280 c25 154 45 282 46 285 0 3 74 5 163 5 140 0 161 -4 150 -32z"/> <path d="M4892 676 c-10 -34 -92 -579 -92 -611 0 -18 51 -25 190 -25 188 0 190 1 190 48 0 27 5 63 12 80 10 26 -4 32 -80 32 -79 0 -92 6 -92 40 0 34 13 40 88 40 92 0 111 23 112 135 0 40 -10 45 -89 45 -72 0 -87 6 -78 30 7 19 38 30 84 30 97 1 118 17 126 100 l7 70 -185 6 c-138 4 -188 -1 -193 -20z m348 -41 c-1 -51 -33 -72 -120 -79 -140 -10 -153 -136 -14 -136 84 0 88 -3 79 -50 -9 -44 -20 -50 -95 -50 -88 0 -110 -20 -110 -102 0 -32 15 -38 90 -38 83 0 90 -4 90 -50 0 -49 -3 -50 -160 -50 -187 0 -178 -19 -130 270 17 99 35 209 41 245 l11 65 159 0 c114 0 159 -7 159 -25z"/> <path d="M5282 416 c-24 -157 -48 -306 -53 -331 -9 -42 -3 -45 89 -45 l98 0 24 170 c28 198 28 198 151 -11 l94 -161 92 6 93 6 44 270 c63 392 64 380 -42 380 -97 0 -98 0 -122 -190 -21 -165 -26 -165 -136 12 -105 168 -106 168 -197 174 l-92 6 -43 -286z m327 53 c135 -218 137 -218 170 16 l25 175 65 0 64 0 -36 -225 c-61 -388 -50 -355 -127 -355 -64 0 -74 10 -184 189 -142 232 -135 232 -169 6 l-27 -185 -68 -6 c-61 -6 -66 -3 -56 40 6 25 26 156 46 291 l35 245 72 0 c69 0 76 -7 190 -191z"/> </g> </svg> 