<?xml version="1.0" encoding="UTF-8"?>
<svg version="1.1" xmlns="http://www.w3.org/2000/svg" width="1024" height="1024">
<path d="M0 0 C337.92 0 675.84 0 1024 0 C1024 337.92 1024 675.84 1024 1024 C686.08 1024 348.16 1024 0 1024 C0 686.08 0 348.16 0 0 Z " fill="#3B2156" transform="translate(0,0)"/>
<path d="M0 0 C1.12598099 -0.0049649 2.25196198 -0.00992981 3.4120636 -0.01504517 C7.12985856 -0.02962668 10.84761085 -0.03646209 14.56542969 -0.04199219 C17.1560669 -0.04774687 19.74670411 -0.05350456 22.33734131 -0.05926514 C27.0744096 -0.06842332 31.81146093 -0.07472829 36.54853654 -0.07776189 C43.4982043 -0.08223824 50.44767497 -0.09977372 57.39728284 -0.12876248 C63.43715771 -0.15307285 69.47694007 -0.16071048 75.51686859 -0.16243744 C78.07641421 -0.16545684 80.63595915 -0.17346118 83.19547272 -0.18662262 C86.78280918 -0.20375287 90.36967004 -0.20178555 93.95703125 -0.1953125 C95.00568863 -0.20452728 96.05434601 -0.21374207 97.13478088 -0.22323608 C108.70366694 -0.15812559 117.56890794 3.01679274 126.35058594 10.54394531 C131.67609453 16.02735308 134.54844927 23.4841051 137.82519531 30.28613281 C139.01493107 32.7318423 140.25948151 35.14203921 141.54980469 37.53613281 C142.08541016 38.53773438 142.08541016 38.53773438 142.63183594 39.55957031 C143.80880012 41.47577474 143.80880012 41.47577474 146.73730469 43.16113281 C149.42880185 43.46288361 149.42880185 43.46288361 152.50292969 43.41650391 C153.68846436 43.42346283 154.87399902 43.43042175 156.09545898 43.43759155 C158.02192261 43.43609604 158.02192261 43.43609604 159.98730469 43.43457031 C161.32430994 43.44313567 162.66130668 43.45313744 163.99829102 43.46450806 C169.66890181 43.51065327 175.33946183 43.53533194 181.01025391 43.54199219 C184.48287113 43.54705326 187.95493837 43.57154229 191.42736816 43.60731888 C193.37405174 43.62169549 195.32085687 43.61452646 197.26757812 43.60678101 C209.80958642 43.74417308 220.52151259 47.27398075 229.70996094 56.04394531 C237.71273974 64.70937459 241.05412509 74.19780011 240.9980011 85.87007141 C241.00182665 86.72245917 241.00565219 87.57484693 241.00959367 88.45306462 C241.01987494 91.29632864 241.01594078 94.13938889 241.01196289 96.98266602 C241.0163121 99.02656236 241.02149595 101.07045707 241.02745056 103.11434937 C241.04083034 108.65783633 241.04142028 114.20125507 241.03888726 119.74475503 C241.03781671 124.37682111 241.04270317 129.00887343 241.04749268 133.64093655 C241.05858468 144.57207691 241.05902722 155.50318291 241.05297852 166.43432617 C241.04694028 177.70020443 241.05924668 188.96595774 241.08054858 200.23181468 C241.09818012 209.91356873 241.10416342 219.59528307 241.10091084 229.27705258 C241.09910008 235.05535001 241.10171344 240.83355835 241.11562538 246.6118412 C241.12822404 252.04802919 241.12624022 257.48402288 241.11321449 262.92020798 C241.11085349 264.91074757 241.11356626 266.90130092 241.12183762 268.89182472 C241.17972786 283.91111363 240.32919349 296.77639552 229.66308594 308.42675781 C222.33368893 315.33404295 214.30307487 319.27694006 204.18457699 319.29535389 C203.04780952 319.29981173 201.91104206 319.30426958 200.7398271 319.30886251 C199.49053263 319.30867814 198.24123817 319.30849378 196.9540863 319.30830383 C195.6137877 319.31160379 194.27349009 319.31532964 192.93319374 319.31944531 C189.24655331 319.32945854 185.55992917 319.33318102 181.87327707 319.33583462 C177.89831436 319.33973972 173.92336452 319.34931796 169.94841003 319.35804749 C160.34668062 319.37780678 150.74495016 319.38787773 141.14320549 319.39677528 C136.62039804 319.40115932 132.09759176 319.40652586 127.57478523 319.41176414 C112.53764177 319.4287764 97.50049904 319.44327003 82.46334743 319.45051289 C78.56142107 319.45242275 74.6594947 319.45434309 70.75756836 319.45629883 C69.30287887 319.45702444 69.30287887 319.45702444 67.81880171 319.45776471 C52.11279144 319.46606299 36.40685739 319.4913965 20.7008804 319.52387951 C4.57203213 319.55696481 -11.55677744 319.57496301 -27.68565983 319.57815713 C-36.73983958 319.58032093 -45.79390823 319.58905055 -54.84805489 319.6146183 C-62.55993521 319.63634546 -70.27167743 319.64436584 -77.98358489 319.63465152 C-81.91612587 319.63011255 -85.84838203 319.63196927 -89.78088379 319.65141296 C-93.38670251 319.66908688 -96.99202952 319.66801323 -100.59785377 319.65251567 C-102.50826278 319.64903021 -104.41867721 319.66513441 -106.32901388 319.68212014 C-118.83571403 319.58920531 -128.32294361 315.99090514 -137.26269531 307.16113281 C-147.59960106 295.02360477 -147.84729737 281.85788031 -147.78027344 266.71777344 C-147.78570059 264.6552023 -147.79282656 262.59263505 -147.80151367 260.53007507 C-147.81967929 254.95362192 -147.8127074 249.37746628 -147.79999733 243.80100822 C-147.78983459 237.95119327 -147.79927208 232.10140292 -147.80554199 226.25158691 C-147.81280886 216.42988536 -147.80325586 206.60830433 -147.78417969 196.78662109 C-147.76241289 185.44905708 -147.76946493 174.11178085 -147.79148531 162.7742238 C-147.80966663 153.02101961 -147.81218426 143.26790179 -147.80173063 133.51468611 C-147.79551075 127.69783788 -147.79461863 121.8811247 -147.80787659 116.06428528 C-147.81947421 110.59431878 -147.81133785 105.12472152 -147.78829956 99.65479469 C-147.78303336 97.65339075 -147.78449023 95.65195546 -147.79335022 93.65056419 C-147.85492355 78.32262882 -146.43556093 66.81784189 -135.48535156 55.29003906 C-126.1113869 46.37614628 -116.45898848 44.43228215 -103.83691406 44.59472656 C-102.47694547 44.59175824 -101.11698043 44.58601268 -99.7570343 44.57765198 C-95.4878574 44.55711117 -91.21932906 44.57649861 -86.95019531 44.59863281 C-81.97954699 44.61982663 -77.00955431 44.62423595 -72.03891945 44.59813118 C-70.06363819 44.59479285 -68.08836514 44.61641152 -66.11320496 44.63853455 C-57.33611686 44.71866513 -57.33611686 44.71866513 -50.26269531 40.16113281 C-48.73810487 38.19475841 -48.73810487 38.19475841 -47.77050781 36.00097656 C-47.37992187 35.21239258 -46.98933594 34.42380859 -46.58691406 33.61132812 C-46.19117188 32.78213867 -45.79542969 31.95294922 -45.38769531 31.09863281 C-38.79494777 18.02697647 -31.94951415 6.17560055 -17.26269531 1.16113281 C-11.53405648 -0.10925742 -5.8363794 0.00617386 0 0 Z " fill="#8860B3" transform="translate(462.2626953125,192.8388671875)"/>
<path d="M0 0 C2.48779261 1.92026492 4.81261835 3.92713908 7.125 6.0546875 C7.96546875 6.80363281 8.8059375 7.55257813 9.671875 8.32421875 C23.05468607 20.87567338 32.79307796 39.73571735 33.55859375 58.2890625 C33.58233949 60.46080808 33.58306425 62.63290947 33.5625 64.8046875 C33.55347656 65.94921387 33.54445313 67.09374023 33.53515625 68.27294922 C33.11941112 88.6473475 24.73644922 107.87904561 10.6328125 122.66796875 C-8.16512593 140.62136212 -28.27692262 145.68418137 -53.515625 145.39453125 C-71.6926945 144.83832585 -87.35257979 137.06166406 -100.875 125.0546875 C-101.90367187 124.16716797 -101.90367187 124.16716797 -102.953125 123.26171875 C-116.75075151 110.52335884 -125.92674251 90.74093799 -126.875 72.0546875 C-126.93945312 70.88164062 -127.00390625 69.70859375 -127.0703125 68.5 C-127.87367573 46.87905037 -119.68413125 26.95162096 -105.75390625 10.55859375 C-97.18770178 1.48941947 -86.53264732 -5.55351185 -74.875 -9.9453125 C-73.92367187 -10.3371875 -72.97234375 -10.7290625 -71.9921875 -11.1328125 C-48.16022311 -19.56476059 -20.50395652 -13.87360102 0 0 Z " fill="#3B2156" transform="translate(554.875,303.9453125)"/>
<path d="M0 0 C16.67685871 15.09789983 27.26893158 33.03185475 33.73046875 54.44384766 C34.03561401 55.45390869 34.03561401 55.45390869 34.34692383 56.484375 C36.99928834 65.84065692 37.03760782 75.21023832 37.04296875 84.88134766 C37.05521484 86.03634766 37.06746094 87.19134766 37.08007812 88.38134766 C37.12940287 117.51582829 23.80196331 144.35509649 3.79296875 165.00634766 C-10.50872983 179.32060077 -28.72142599 188.37216868 -48.14453125 193.50634766 C-49.94857422 193.9878125 -49.94857422 193.9878125 -51.7890625 194.47900391 C-78.49028906 200.6986829 -108.76119299 195.35360049 -132.13671875 181.14697266 C-139.78654624 176.28869797 -146.63847258 170.82651894 -153.14453125 164.50634766 C-153.96308594 163.76126953 -154.78164063 163.01619141 -155.625 162.24853516 C-166.88468653 151.66966688 -174.28632612 138.66628732 -180.14453125 124.50634766 C-180.54414063 123.54728516 -180.94375 122.58822266 -181.35546875 121.60009766 C-186.68335558 107.33898703 -187.79844187 91.59659279 -187.14453125 76.50634766 C-187.12519531 75.59369141 -187.10585938 74.68103516 -187.0859375 73.74072266 C-185.64078323 45.18797773 -170.02551011 19.60784507 -150.08203125 0.13525391 C-108.05694783 -37.47496038 -42.10495778 -37.02773191 0 0 Z M-130.14453125 25.50634766 C-130.77875 26.04646484 -131.41296875 26.58658203 -132.06640625 27.14306641 C-145.64835267 39.51011395 -154.25569363 60.38370548 -155.390625 78.41650391 C-155.99843071 101.1233622 -149.14894374 121.38299142 -134.14453125 138.50634766 C-133.25507813 139.53888672 -133.25507813 139.53888672 -132.34765625 140.59228516 C-123.77642484 149.85947125 -112.04943895 156.53321159 -100.14453125 160.50634766 C-99.38293701 160.76456299 -98.62134277 161.02277832 -97.83666992 161.28881836 C-90.13926546 163.66958269 -82.85397367 164.01027438 -74.83203125 163.94384766 C-73.54546631 163.93554932 -72.25890137 163.92725098 -70.93334961 163.91870117 C-62.00614861 163.75935775 -54.38898456 163.15251664 -46.14453125 159.50634766 C-44.99726562 159.02037109 -43.85 158.53439453 -42.66796875 158.03369141 C-20.80900864 147.96142548 -6.58337625 131.05252132 1.84765625 108.73681641 C7.35803321 91.07370885 7.21689387 70.60130991 -0.14453125 53.50634766 C-0.42329102 52.85633789 -0.70205078 52.20632813 -0.98925781 51.53662109 C-5.40965215 41.63356712 -11.42197151 34.03973807 -19.14453125 26.50634766 C-20.23894531 25.39839844 -20.23894531 25.39839844 -21.35546875 24.26806641 C-38.32634449 8.02271138 -59.75110483 3.87449574 -82.48828125 4.16650391 C-100.97262422 4.79641435 -116.53200998 13.32094555 -130.14453125 25.50634766 Z " fill="#F6ECF6" transform="translate(583.14453125,285.49365234375)"/>
<path d="M0 0 C8.58 0 17.16 0 26 0 C26 34.65 26 69.3 26 105 C18.74 105 11.48 105 4 105 C3.67 83.88 3.34 62.76 3 41 C-6.80094756 60.4951105 -6.80094756 60.4951105 -16.3125 80.125 C-16.77849609 81.1046875 -17.24449219 82.084375 -17.72460938 83.09375 C-18.81870775 85.3947404 -19.90976407 87.69717701 -21 90 C-26.61 90 -32.22 90 -38 90 C-44.01484645 78.74641632 -49.84976 67.40929764 -55.5625 56 C-55.8753595 55.37677856 -56.18821899 54.75355713 -56.51055908 54.1114502 C-57.40649502 52.32546218 -58.29901744 50.53776302 -59.19140625 48.75 C-59.70904541 47.71359375 -60.22668457 46.6771875 -60.76000977 45.609375 C-62 43 -62 43 -63 40 C-63.33 61.78 -63.66 83.56 -64 106 C-71.26 106 -78.52 106 -86 106 C-86 71.35 -86 36.7 -86 1 C-77.09 1 -68.18 1 -59 1 C-52.2196441 14.37990231 -45.68101676 27.82789276 -39.41723633 41.45410156 C-38.8992749 42.58041992 -38.38131348 43.70673828 -37.84765625 44.8671875 C-37.11699951 46.45805176 -37.11699951 46.45805176 -36.37158203 48.08105469 C-35.17373377 50.63026683 -33.91860153 53.13344473 -32.62109375 55.6328125 C-31 59 -31 59 -31 62 C-30.34 62 -29.68 62 -29 62 C-28.59164917 60.70002075 -28.59164917 60.70002075 -28.17504883 59.3737793 C-27.04028018 56.11565174 -25.71046886 53.11879103 -24.19921875 50.01953125 C-23.63992676 48.86735107 -23.08063477 47.7151709 -22.50439453 46.52807617 C-21.89880018 45.28953261 -21.29316782 44.05100763 -20.6875 42.8125 C-20.06584382 41.53445539 -19.44459291 40.25621359 -18.82373047 38.9777832 C-17.53631936 36.32731474 -16.24735684 33.67760883 -14.95751953 31.02832031 C-11.82631205 24.59120195 -8.72727469 18.13859836 -5.625 11.6875 C-2.840625 5.9021875 -2.840625 5.9021875 0 0 Z " fill="#F6ECF6" transform="translate(513,577)"/>
<path d="M0 0 C7.46421898 5.52279853 13.35786535 11.88554559 16.41796875 20.7890625 C16.41796875 22.1090625 16.41796875 23.4290625 16.41796875 24.7890625 C13.46080468 25.62658411 10.50205575 26.45836281 7.54296875 27.2890625 C6.70121094 27.52753906 5.85945312 27.76601563 4.9921875 28.01171875 C3.78369141 28.35009766 3.78369141 28.35009766 2.55078125 28.6953125 C1.80715332 28.90478516 1.06352539 29.11425781 0.29736328 29.33007812 C-1.58203125 29.7890625 -1.58203125 29.7890625 -3.58203125 29.7890625 C-4.84375 28.03125 -4.84375 28.03125 -6.26953125 25.6640625 C-10.20912336 19.56249911 -14.56486108 15.0665651 -21.58203125 12.7890625 C-30.25911052 11.70869221 -37.42587452 12.61092797 -44.58203125 17.7890625 C-50.73919557 23.12921847 -54.94459007 29.71593578 -55.80517578 37.91503906 C-56.64295497 50.55788858 -55.5845082 61.80735638 -47.36328125 72 C-41.82002609 77.56756769 -35.9010057 80.90632389 -28.01953125 81.1015625 C-21.09255111 81.01780216 -15.19194022 79.73499244 -9.734375 75.28125 C-5.4101916 70.71270243 -4.69110183 67.11627425 -2.58203125 60.7890625 C-11.16203125 60.7890625 -19.74203125 60.7890625 -28.58203125 60.7890625 C-28.58203125 54.5190625 -28.58203125 48.2490625 -28.58203125 41.7890625 C-12.74203125 41.7890625 3.09796875 41.7890625 19.41796875 41.7890625 C19.41796875 66.43254076 19.41796875 66.43254076 16.41796875 73.7890625 C16.16273438 74.47484375 15.9075 75.160625 15.64453125 75.8671875 C10.544185 87.75239803 0.97133309 94.15718978 -10.58203125 98.7890625 C-21.57546528 102.71717202 -37.58202165 102.94641515 -48.27734375 98.04296875 C-49.41816406 97.42228516 -49.41816406 97.42228516 -50.58203125 96.7890625 C-51.84660156 96.15291016 -51.84660156 96.15291016 -53.13671875 95.50390625 C-65.54253559 88.73538308 -73.64221456 78.4034864 -77.89453125 65.0390625 C-82.80002572 48.23205191 -81.48530027 31.98763641 -73.2265625 16.53515625 C-66.94804688 6.0510791 -55.70786906 -2.86355879 -43.9921875 -6.625 C-28.94463944 -9.21048936 -13.0333482 -8.41262221 0 0 Z " fill="#F5EBF5" transform="translate(736.58203125,583.2109375)"/>
<path d="M0 0 C1.084021 0.00523682 2.16804199 0.01047363 3.28491211 0.01586914 C4.45473633 0.0190918 5.62456055 0.02231445 6.82983398 0.02563477 C8.0615332 0.03401367 9.29323242 0.04239258 10.56225586 0.05102539 C12.41560547 0.05779297 12.41560547 0.05779297 14.30639648 0.06469727 C17.37089703 0.07652931 20.43530307 0.09301366 23.49975586 0.11352539 C23.6978183 0.66648285 23.89588074 1.21944031 24.09994507 1.78915405 C26.26426399 7.83131685 28.42917118 13.87326868 30.59432983 19.91513062 C31.44638309 22.29302874 32.29829199 24.67097859 33.15005493 27.04898071 C38.00545821 40.60429511 42.87136218 54.15554203 47.76928711 67.69555664 C48.60412185 70.00560202 49.43892072 72.31566036 50.27368164 74.62573242 C51.4771626 77.95599792 52.68174553 81.28584297 53.88983154 84.61444092 C55.00604493 87.68997184 56.11849971 90.76683848 57.23022461 93.84399414 C57.56367386 94.75921341 57.89712311 95.67443268 58.24067688 96.61738586 C58.69026009 97.86493904 58.69026009 97.86493904 59.14892578 99.13769531 C59.54261604 100.22361214 59.54261604 100.22361214 59.94425964 101.33146667 C60.49975586 103.11352539 60.49975586 103.11352539 60.49975586 105.11352539 C52.90975586 105.11352539 45.31975586 105.11352539 37.49975586 105.11352539 C34.52637573 98.12206401 31.91109309 91.34753709 29.49975586 84.11352539 C10.19475586 83.61852539 10.19475586 83.61852539 -9.50024414 83.11352539 C-10.49024414 86.74352539 -11.48024414 90.37352539 -12.50024414 94.11352539 C-13.82024414 97.74352539 -15.14024414 101.37352539 -16.50024414 105.11352539 C-24.42024414 105.11352539 -32.34024414 105.11352539 -40.50024414 105.11352539 C-36.00046265 91.35947632 -31.32048723 77.71520719 -26.29443359 64.14550781 C-23.09037163 55.48671724 -19.94436447 46.80833444 -16.82836914 38.11743164 C-16.42121674 36.98247253 -16.01406433 35.84751343 -15.59457397 34.67816162 C-13.94110579 30.06770064 -12.28822201 25.45704089 -10.64044189 20.84454346 C-9.47891474 17.59349779 -8.31406003 14.34366087 -7.14868164 11.09399414 C-6.79501526 10.10065567 -6.44134888 9.1073172 -6.07696533 8.08387756 C-5.75177917 7.17866867 -5.42659302 6.27345978 -5.09155273 5.34082031 C-4.80718353 4.54528244 -4.52281433 3.74974457 -4.22982788 2.93009949 C-3.13832482 0.21239065 -3.03521285 0.13781603 0 0 Z " fill="#F5EAF5" transform="translate(229.500244140625,577.886474609375)"/>
<path d="M0 0 C8.58 0 17.16 0 26 0 C44.18983647 50.30936252 44.18983647 50.30936252 50.70214844 69.40405273 C53.7997318 78.47603509 57.02876624 87.4973338 60.31079102 96.50415039 C60.66455811 97.47731201 61.0183252 98.45047363 61.3828125 99.453125 C61.85291748 100.73944824 61.85291748 100.73944824 62.33251953 102.05175781 C63 104 63 104 63 105 C55.08 105 47.16 105 39 105 C37.2675 100.111875 37.2675 100.111875 35.5 95.125 C35.13455078 94.09906738 34.76910156 93.07313477 34.39257812 92.01611328 C33.9662207 90.80544189 33.9662207 90.80544189 33.53125 89.5703125 C33.23798828 88.74289551 32.94472656 87.91547852 32.64257812 87.06298828 C32 85 32 85 32 83 C19.13 83 6.26 83 -7 83 C-7.66 85.97 -8.32 88.94 -9 92 C-10.54315818 96.71832304 -12.28108297 101.34083014 -14 106 C-21.59 106 -29.18 106 -37 106 C-34.74994892 95.87477015 -34.74994892 95.87477015 -33.28271484 91.8112793 C-32.95356583 90.89137207 -32.62441681 89.97146484 -32.28529358 89.02368164 C-31.93075607 88.05035889 -31.57621857 87.07703613 -31.2109375 86.07421875 C-30.83492905 85.0284668 -30.45892059 83.98271484 -30.07151794 82.90527344 C-28.84463434 79.49741508 -27.60994239 76.09244536 -26.375 72.6875 C-25.52390744 70.32868529 -24.67324454 67.96971551 -23.82299805 65.6105957 C-21.22342035 58.40412494 -18.61274164 51.20170667 -16 44 C-15.17951544 41.73698254 -14.35903995 39.47396179 -13.53857422 37.2109375 C-9.03841522 24.80264984 -4.52423641 12.39952793 0 0 Z " fill="#F5EAF5" transform="translate(591,577)"/>
<path d="M0 0 C21.45 0 42.9 0 65 0 C65 6.6 65 13.2 65 20 C50.81 20 36.62 20 22 20 C22 27.59 22 35.18 22 43 C34.87 43 47.74 43 61 43 C61 49.27 61 55.54 61 62 C48.13 62 35.26 62 22 62 C22 69.92 22 77.84 22 86 C36.19 86 50.38 86 65 86 C65 92.27 65 98.54 65 105 C43.55 105 22.1 105 0 105 C0 70.35 0 35.7 0 0 Z " fill="#F5EAF5" transform="translate(772,577)"/>
<path d="M0 0 C8.20420762 5.01368243 13.94532681 11.91875082 17.3359375 20.92578125 C19.85940821 31.70262177 19.83971624 44.0069493 14.79296875 54.015625 C9.01645916 63.17933364 2.43334945 68.14721685 -7.8125 71.5625 C-11.01580421 71.84129899 -14.22338553 71.84001327 -17.4375 71.875 C-18.73494141 71.91850586 -18.73494141 71.91850586 -20.05859375 71.96289062 C-28.981127 72.04984185 -37.28035259 68.75002573 -43.8125 62.5625 C-52.45122483 51.76917556 -54.63353217 41.22148969 -53.8125 27.5625 C-52.06043753 17.47779396 -46.74999251 8.98420852 -38.8125 2.5625 C-27.82786639 -4.11324418 -11.79225447 -5.48688447 0 0 Z " fill="#F4EAF4" transform="translate(729.8125,730.4375)"/>
<path d="M0 0 C35.87301587 0 35.87301587 0 44.0625 7.9375 C49.3420618 14.43045743 49.81680775 20.87327981 49 29 C47.27624893 35.79178566 43.70827634 40.0632577 38 44 C37.01 44.495 37.01 44.495 36 45 C37.2783067 48.42791207 38.75806773 51.40320907 40.75 54.46875 C41.2759375 55.28730469 41.801875 56.10585938 42.34375 56.94921875 C42.8903125 57.79097656 43.436875 58.63273438 44 59.5 C45.0872862 61.17452332 46.1707505 62.8515357 47.25 64.53125 C47.72953125 65.26923828 48.2090625 66.00722656 48.703125 66.76757812 C50.06454396 69.11110504 51.05411272 71.4635051 52 74 C47.44832411 74.80859847 43.52260733 75.07526435 39 74 C35.32318346 70.25829403 33.18645558 65.74423461 30.9375 61.0625 C30.03517593 59.20050383 29.12071212 57.35496988 28.14613342 55.52964783 C27.26295834 53.8752845 26.44183833 52.18822888 25.62475586 50.50024414 C22.14891423 46.66594349 22.14891423 46.66594349 11 47 C11 55.91 11 64.82 11 74 C7.37 74 3.74 74 0 74 C0 49.58 0 25.16 0 0 Z " fill="#F3EAF4" transform="translate(766,728)"/>
<path d="M0 0 C33 0 33 0 42 5 C44.15625 7.31640625 44.15625 7.31640625 45.5 9.5625 C45.9640625 10.30628906 46.428125 11.05007813 46.90625 11.81640625 C49.90408358 17.80136687 49.96213246 24.81449361 47.875 31.125 C45.17928023 37.49554529 40.95897853 41.63671212 35 45 C36.70723965 47.64654048 38.41596756 50.29211693 40.125 52.9375 C40.87680542 54.10261108 40.87680542 54.10261108 41.64379883 55.29125977 C44.72121586 60.05206724 47.83957681 64.77753169 51.07421875 69.43359375 C52 71 52 71 52 73 C47.25454279 74.30882771 43.70190085 74.58395597 39 73 C34.3525329 68.24753505 31.33819983 62.09491507 28.24560547 56.26855469 C27.14218316 54.25895059 25.96508808 52.38998073 24.66015625 50.5078125 C23 48 23 48 23 46 C19.04 46 15.08 46 11 46 C11 54.58 11 63.16 11 72 C7.37 72 3.74 72 0 72 C0 48.24 0 24.48 0 0 Z " fill="#F3E9F4" transform="translate(488,729)"/>
<path d="M0 0 C7.59 0 15.18 0 23 0 C23 34.65 23 69.3 23 105 C15.41 105 7.82 105 0 105 C0 70.35 0 35.7 0 0 Z " fill="#F6EBF6" transform="translate(304,578)"/>
<path d="M0 0 C0 1.32 0 2.64 0 4 C-2.92772707 5.28088059 -5.61174322 6.13254436 -8.75 6.8125 C-18.92849548 9.33799136 -25.75309209 15.45617288 -31.38671875 24.13671875 C-35.7482418 32.90567561 -35.32351082 44.71919718 -33.33984375 54.1328125 C-29.61863369 64.41044029 -22.68410624 71.2513627 -13 76 C-9.75856819 77.41085721 -6.64569617 78.40239184 -3.1875 79.125 C-2.39730469 79.29257812 -1.60710938 79.46015625 -0.79296875 79.6328125 C-0.20128906 79.75398438 0.39039063 79.87515625 1 80 C1 81.32 1 82.64 1 84 C-9.64543354 88.40500698 -20.39747838 88.42396434 -31.1875 84.3203125 C-44.78549447 77.93680954 -52.70635142 67.82439347 -57.74609375 53.9453125 C-61.29816114 42.13775056 -58.74433111 30.05775718 -53.3125 19.3125 C-47.33906954 9.0094332 -38.37625946 2.00163587 -27.125 -1.875 C-17.71532558 -4.3527826 -9.02773865 -3.35544268 0 0 Z " fill="#F5EBF5" transform="translate(523,328)"/>
<path d="M0 0 C1.65322266 0.01740234 1.65322266 0.01740234 3.33984375 0.03515625 C4.99693359 0.04869141 4.99693359 0.04869141 6.6875 0.0625 C7.54214844 0.07410156 8.39679687 0.08570313 9.27734375 0.09765625 C15.60089333 15.58913195 21.66116797 31.18061358 27.659729 46.80026245 C28.48977505 48.96111787 29.32095648 51.12153748 30.15325928 53.28152466 C31.336154 56.35301534 32.51446667 59.42622328 33.69140625 62.5 C34.23447418 63.90782242 34.23447418 63.90782242 34.78851318 65.34408569 C35.116922 66.2049881 35.44533081 67.0658905 35.78369141 67.95288086 C36.07329742 68.70798447 36.36290344 69.46308807 36.6612854 70.24107361 C37.27734375 72.09765625 37.27734375 72.09765625 37.27734375 74.09765625 C33.31734375 74.09765625 29.35734375 74.09765625 25.27734375 74.09765625 C22.01443336 68.02189208 20.32220845 62.91387191 18.27734375 56.09765625 C8.37734375 56.09765625 -1.52265625 56.09765625 -11.72265625 56.09765625 C-12.71265625 59.39765625 -13.70265625 62.69765625 -14.72265625 66.09765625 C-15.69884331 68.7731319 -16.69040885 71.44330578 -17.72265625 74.09765625 C-22.01265625 74.09765625 -26.30265625 74.09765625 -30.72265625 74.09765625 C-28.69205139 67.05425616 -26.35404954 60.23401089 -23.703125 53.40234375 C-23.13154411 51.91566696 -23.13154411 51.91566696 -22.54841614 50.3989563 C-21.33910743 47.25551653 -20.12483475 44.11402444 -18.91015625 40.97265625 C-17.710532 37.86085081 -16.51195766 34.74864312 -15.31375122 31.6362915 C-14.53738421 29.62017295 -13.76027531 27.60433991 -12.98239136 25.58880615 C-10.42872306 18.96446348 -7.91480896 12.32652181 -5.47612 5.65890503 C-3.43025964 0.12303657 -3.43025964 0.12303657 0 0 Z " fill="#F4EAF4" transform="translate(581.72265625,727.90234375)"/>
<path d="M0 0 C3.63 0 7.26 0 11 0 C14.11755959 3.19602499 16.0057178 5.63545609 18.2421875 9.37890625 C18.85845001 10.33893051 19.47471252 11.29895477 20.10964966 12.28807068 C22.06881037 15.3576776 23.97199374 18.45783582 25.875 21.5625 C27.17606959 23.6253332 28.48072275 25.6859108 29.7890625 27.74414062 C32.19713928 31.53787149 34.58056247 35.34510241 36.94482422 39.16625977 C38.83167314 42.20334959 40.78586471 45.13818177 42.90283203 48.01928711 C45 51 45 51 45 53 C45.66 53 46.32 53 47 53 C47 35.51 47 18.02 47 0 C50.63 0 54.26 0 58 0 C58 24.09 58 48.18 58 73 C46 73 46 73 43.45385742 71.14746094 C42.69359253 69.8292334 42.69359253 69.8292334 41.91796875 68.484375 C41.2945459 67.47826172 40.67112305 66.47214844 40.02880859 65.43554688 C39.35930176 64.30181641 38.68979492 63.16808594 38 62 C36.74284365 60.10629995 35.45514397 58.23598961 34.16360474 56.36560059 C32.787381 54.37120564 31.42928633 52.36560301 30.07617188 50.35546875 C29.62169678 49.6804834 29.16722168 49.00549805 28.69897461 48.31005859 C28.01266968 47.29032959 28.01266968 47.29032959 27.3125 46.25 C25.92052378 44.18420553 24.52795466 42.11881633 23.13432312 40.05413818 C22.27619525 38.78258307 21.41903061 37.51037711 20.56306458 36.23736572 C17.77533401 32.10346463 14.9006065 28.0608491 12 24 C11.67 40.17 11.34 56.34 11 73 C7.37 73 3.74 73 0 73 C0 48.91 0 24.82 0 0 Z " fill="#F6ECF6" transform="translate(351,729)"/>
<path d="M0 0 C7.26 0 14.52 0 22 0 C22 34.65 22 69.3 22 105 C14.74 105 7.48 105 0 105 C0 70.35 0 35.7 0 0 Z " fill="#F6ECF6" transform="translate(386,578)"/>
<path d="M0 0 C0.75587402 -0.01023193 1.51174805 -0.02046387 2.29052734 -0.03100586 C11.0812053 0.10572102 18.6654875 3.20560698 24.9375 9.4375 C29.9375 16.62878329 29.9375 16.62878329 29.9375 20.4375 C28.66910474 20.94365298 27.39766898 21.44219099 26.125 21.9375 C25.41730469 22.2159375 24.70960938 22.494375 23.98046875 22.78125 C21.9375 23.4375 21.9375 23.4375 18.9375 23.4375 C17.5834068 21.45149663 16.25292376 19.44932457 14.9375 17.4375 C9.07286735 12.14502663 4.1528302 12.02226464 -3.5390625 12.1015625 C-8.48627916 12.57324835 -11.56593446 13.92400193 -15.0625 17.4375 C-20.60488227 24.37616366 -22.61327033 31.37066609 -22.4375 40.203125 C-21.60569864 47.37741169 -18.99859945 54.16168387 -13.5625 59.0625 C-7.67711484 63.34736286 -2.28823663 64.37091583 4.9375 63.4375 C7.19065831 62.59920373 9.17127758 61.61866086 11.24609375 60.41015625 C12.9375 59.4375 12.9375 59.4375 15.9375 58.4375 C18.0729075 54.2922972 18.79141168 50.02185328 19.9375 45.4375 C13.6675 45.4375 7.3975 45.4375 0.9375 45.4375 C0.9375 41.8075 0.9375 38.1775 0.9375 34.4375 C11.1675 34.4375 21.3975 34.4375 31.9375 34.4375 C31.9375 57.16334856 31.9375 57.16334856 23.44140625 65.9921875 C16.1435074 72.76760398 7.50976445 75.79334212 -2.34375 75.6484375 C-12.67989045 74.84649557 -19.72808438 70.04732784 -26.8125 62.8125 C-34.6734624 53.22464425 -35.08486032 41.42872092 -34.29882812 29.55615234 C-33.79631659 25.05119871 -32.32754493 21.32268123 -30.0625 17.4375 C-29.485 16.385625 -28.9075 15.33375 -28.3125 14.25 C-20.46936857 4.44608571 -12.45633435 0.13051907 0 0 Z " fill="#F4EAF4" transform="translate(242.0625,727.5625)"/>
<path d="M0 0 C6.08913424 2.76024957 10.48870924 7.89540639 13.2578125 13.91015625 C15.91566437 22.23809212 15.49694723 30.93004229 11.8828125 38.84765625 C8.27698367 45.22589121 4.02266025 48.6068595 -2.4921875 51.72265625 C-10.3288288 53.28998451 -16.29675613 52.83943186 -23.35546875 48.89453125 C-29.21938645 44.88397614 -33.26604628 39.41346033 -34.6171875 32.34765625 C-35.55340098 23.04793566 -35.35919982 15.02759773 -29.6171875 7.34765625 C-21.54799105 -1.27989977 -11.35448017 -2.83014655 0 0 Z " fill="#392054" transform="translate(722.6171875,739.65234375)"/>
<path d="M0 0 C13.86 0 27.72 0 42 0 C42 3.3 42 6.6 42 10 C31.77 10 21.54 10 11 10 C11 16.93 11 23.86 11 31 C20.24 31 29.48 31 39 31 C39 34.3 39 37.6 39 41 C29.76 41 20.52 41 11 41 C11 47.93 11 54.86 11 62 C21.23 62 31.46 62 42 62 C42 65.63 42 69.26 42 73 C28.14 73 14.28 73 0 73 C0 48.91 0 24.82 0 0 Z " fill="#F6ECF6" transform="translate(428,729)"/>
<path d="M0 0 C13.86 0 27.72 0 42 0 C42 3.3 42 6.6 42 10 C31.77 10 21.54 10 11 10 C11 16.93 11 23.86 11 31 C20.24 31 29.48 31 39 31 C39 34.3 39 37.6 39 41 C29.76 41 20.52 41 11 41 C11 47.93 11 54.86 11 62 C21.23 62 31.46 62 42 62 C42 65.63 42 69.26 42 73 C28.14 73 14.28 73 0 73 C0 48.91 0 24.82 0 0 Z " fill="#F5E8F5" transform="translate(290,729)"/>
<path d="M0 0 C17.82 0 35.64 0 54 0 C54 3.63 54 7.26 54 11 C47.07 11 40.14 11 33 11 C33 31.79 33 52.58 33 74 C29.37 74 25.74 74 22 74 C22 53.54 22 33.08 22 12 C14.74 12 7.48 12 0 12 C0 8.04 0 4.08 0 0 Z " fill="#EFE4F0" transform="translate(616,728)"/>
<path d="M0 0 C5.02155018 2.68335608 8.96325081 6.92100244 10.76171875 12.31640625 C11.71088848 24.96591823 11.71088848 24.96591823 7.76171875 30.31640625 C2.56092183 35.51720317 -1.0620689 37.46479375 -8.55078125 37.62890625 C-14.00443242 37.57443027 -17.15210124 37.19827726 -21.23828125 33.31640625 C-25.77133839 28.66874935 -28.25227249 24.51256717 -28.67578125 18.00390625 C-28.52684943 12.03670449 -25.82045516 7.86069986 -21.640625 3.7421875 C-15.44002138 -1.57479202 -7.88807975 -2.4090994 0 0 Z " fill="#A7EAED" transform="translate(660.23828125,271.68359375)"/>
<path d="M0 0 C21.45 0 42.9 0 65 0 C65 6.6 65 13.2 65 20 C50.81 20 36.62 20 22 20 C22 27.59 22 35.18 22 43 C34.87 43 47.74 43 61 43 C61 49.27 61 55.54 61 62 C48.13 62 35.26 62 22 62 C22 69.92 22 77.84 22 86 C36.19 86 50.38 86 65 86 C65 92.27 65 98.54 65 105 C43.55 105 22.1 105 0 105 C0 70.35 0 35.7 0 0 Z M2 2 C2 35.66 2 69.32 2 104 C22.13 104 42.26 104 63 104 C63 98.39 63 92.78 63 87 C49.14 87 35.28 87 21 87 C21.33 78.42 21.66 69.84 22 61 C34.21 60.67 46.42 60.34 59 60 C59 55.05 59 50.1 59 45 C40.685 44.505 40.685 44.505 22 44 C21.505 31.625 21.505 31.625 21 19 C34.86 19 48.72 19 63 19 C63 13.39 63 7.78 63 2 C42.87 2 22.74 2 2 2 Z " fill="#FCFBFC" transform="translate(772,577)"/>
<path d="M0 0 C2.84625 -0.0825 5.6925 -0.165 8.625 -0.25 C9.51010254 -0.28641602 10.39520508 -0.32283203 11.30712891 -0.36035156 C16.6946415 -0.4355318 19.75911288 0.3724104 24 4 C26.971705 8.4575575 26.75294249 12.77413182 26 18 C24.34766078 21.17568542 22.24607029 23.37696485 19 25 C17.55151418 25.08342159 16.09929131 25.10732861 14.6484375 25.09765625 C13.88192871 25.09515869 13.11541992 25.09266113 12.32568359 25.09008789 C11.35195801 25.08098389 10.37823242 25.07187988 9.375 25.0625 C6.28125 25.041875 3.1875 25.02125 0 25 C0 16.75 0 8.5 0 0 Z " fill="#351D50" transform="translate(777,739)"/>
<path d="M0 0 C2.701875 -0.061875 5.40375 -0.12375 8.1875 -0.1875 C9.02949951 -0.21481201 9.87149902 -0.24212402 10.73901367 -0.27026367 C16.71601 -0.33633531 19.8604557 1.03393227 24.3125 5.125 C26.66287761 9.12934704 26.68497411 12.46101493 26 17 C24.37290956 20.74230801 22.56736435 23.0323756 19 25 C15.74054671 25.3705643 12.52492813 25.28110882 9.25 25.1875 C4.67125 25.0946875 4.67125 25.0946875 0 25 C0 16.75 0 8.5 0 0 Z " fill="#351D50" transform="translate(499,739)"/>
<path d="M0 0 C2 1 2 1 3.32861328 4.51000977 C3.83363239 6.06797285 4.3302839 7.62866338 4.8203125 9.19140625 C5.21559647 10.42116432 5.21559647 10.42116432 5.61886597 11.67576599 C6.46136512 14.30246099 7.29327399 16.93237621 8.125 19.5625 C8.69331762 21.34071636 9.26231924 23.11871427 9.83203125 24.89648438 C11.23061995 29.26146749 12.61485191 33.63064141 14 38 C5.42 38 -3.16 38 -12 38 C-10.72641501 32.26886755 -9.52384353 27.22842444 -7.6171875 21.77734375 C-7.28849167 20.83091759 -7.28849167 20.83091759 -6.95315552 19.8653717 C-6.26512987 17.88773948 -5.57022038 15.91261288 -4.875 13.9375 C-4.4018818 12.5815413 -3.92922194 11.22542259 -3.45703125 9.86914062 C-2.30996322 6.57756639 -1.15671656 3.28819785 0 0 Z " fill="#371E51" transform="translate(603,604)"/>
<path d="M0 0 C2.84947242 2.84947242 3.60270819 6.31781154 4.8203125 10.0703125 C5.21559647 11.26465408 5.21559647 11.26465408 5.61886597 12.48312378 C6.4598885 15.02859534 7.29252704 17.5767211 8.125 20.125 C8.6934607 21.85044162 9.26246441 23.57570445 9.83203125 25.30078125 C11.22869899 29.53150365 12.61400134 33.7657105 14 38 C5.42 38 -3.16 38 -12 38 C-10.72641501 32.26886755 -9.52384353 27.22842444 -7.6171875 21.77734375 C-7.28849167 20.83091759 -7.28849167 20.83091759 -6.95315552 19.8653717 C-6.26512987 17.88773948 -5.57022038 15.91261288 -4.875 13.9375 C-4.4018818 12.5815413 -3.92922194 11.22542259 -3.45703125 9.86914062 C-2.30996322 6.57756639 -1.15671656 3.28819785 0 0 Z " fill="#351E4F" transform="translate(239,604)"/>
<path d="M0 0 C13.86 0 27.72 0 42 0 C42 3.3 42 6.6 42 10 C31.77 10 21.54 10 11 10 C11 16.93 11 23.86 11 31 C20.24 31 29.48 31 39 31 C39 34.3 39 37.6 39 41 C29.76 41 20.52 41 11 41 C11 40.67 11 40.34 11 40 C19.91 40 28.82 40 38 40 C38 37.69 38 35.38 38 33 C36.73555054 33.00785522 36.73555054 33.00785522 35.44555664 33.01586914 C32.32772064 33.03287826 29.20990823 33.04543406 26.09204102 33.05493164 C24.74079614 33.05997057 23.38955674 33.06680177 22.03833008 33.07543945 C20.09979566 33.08752419 18.161222 33.09269828 16.22265625 33.09765625 C14.47094116 33.10551147 14.47094116 33.10551147 12.68383789 33.11352539 C10 33 10 33 9 32 C8.74843731 28.36100825 8.81477774 24.70916327 8.8125 21.0625 C8.80025391 20.03447266 8.78800781 19.00644531 8.77539062 17.94726562 C8.77249023 16.47483398 8.77249023 16.47483398 8.76953125 14.97265625 C8.76542236 14.06781494 8.76131348 13.16297363 8.75708008 12.23071289 C9 10 9 10 11 8 C13.88916016 7.77294922 13.88916016 7.77294922 17.5390625 7.8046875 C19.49199219 7.81435547 19.49199219 7.81435547 21.484375 7.82421875 C22.86458595 7.84093071 24.24479429 7.85786061 25.625 7.875 C27.01301452 7.88502994 28.40103589 7.89415577 29.7890625 7.90234375 C33.19288026 7.92598137 36.59635506 7.95893133 40 8 C40 5.69 40 3.38 40 1 C27.46 1 14.92 1 2 1 C2 24.1 2 47.2 2 71 C1.34 71 0.68 71 0 71 C0 47.57 0 24.14 0 0 Z " fill="#FBF9FA" transform="translate(290,729)"/>
<path d="M0 0 C0.66 0 1.32 0 2 0 C3.56872755 3.96847107 5.13525154 7.93780246 6.69970703 11.90795898 C7.23262475 13.25943702 7.76615211 14.61067483 8.30029297 15.96166992 C9.06637046 17.89960435 9.83027686 19.83838209 10.59375 21.77734375 C11.05458984 22.94515381 11.51542969 24.11296387 11.99023438 25.31616211 C13 28 13 28 13 29 C5.41 29 -2.18 29 -10 29 C-9.22074679 25.10373397 -8.32698304 21.93163139 -6.93359375 18.26171875 C-6.53076172 17.19501953 -6.12792969 16.12832031 -5.71289062 15.02929688 C-5.29201172 13.92650391 -4.87113281 12.82371094 -4.4375 11.6875 C-4.01275391 10.56537109 -3.58800781 9.44324219 -3.15039062 8.28710938 C-2.10371244 5.52340854 -1.05347135 2.76111699 0 0 Z " fill="#331D4D" transform="translate(584,744)"/>
<path d="M0 0 C0.33 0 0.66 0 1 0 C1 20.13 1 40.26 1 61 C3.97 60.505 3.97 60.505 7 60 C7 40.2 7 20.4 7 0 C7.66 0 8.32 0 9 0 C9 20.79 9 41.58 9 63 C5.37 63 1.74 63 -2 63 C-2.04628946 55.08114422 -2.08185182 47.16234474 -2.10362434 39.24338722 C-2.11407274 35.5665065 -2.12825102 31.88971817 -2.15087891 28.21289062 C-2.17256991 24.66620345 -2.18456067 21.11960528 -2.18975449 17.5728569 C-2.193457 16.21802748 -2.20068689 14.86320306 -2.21146011 13.50841141 C-2.22592448 11.61454243 -2.22681649 9.72058436 -2.22705078 7.82666016 C-2.23371262 6.20783432 -2.23371262 6.20783432 -2.24050903 4.55630493 C-2 2 -2 2 0 0 Z " fill="#F8F2F7" transform="translate(640,739)"/>
<path d="M0 0 C7.59 0 15.18 0 23 0 C23 34.65 23 69.3 23 105 C21.02 104.67 19.04 104.34 17 104 C18.98 103.505 18.98 103.505 21 103 C21 69.34 21 35.68 21 1 C14.07 1 7.14 1 0 1 C0 0.67 0 0.34 0 0 Z " fill="#E0D7E4" transform="translate(304,578)"/>
<path d="M0 0 C3.63 0 7.26 0 11 0 C11 24.09 11 48.18 11 73 C7.04 73 3.08 73 -1 73 C-1 72.01 -1 71.02 -1 70 C2.3 70.33 5.6 70.66 9 71 C9 47.9 9 24.8 9 1 C6.36 1 3.72 1 1 1 C1 18.49 1 35.98 1 54 C0.67 54 0.34 54 0 54 C0 36.18 0 18.36 0 0 Z " fill="#E0DAE5" transform="translate(398,729)"/>
<path d="M0 0 C0.33 0 0.66 0 1 0 C1 7.26 1 14.52 1 22 C11.23 22 21.46 22 32 22 C32 25.63 32 29.26 32 33 C18.14 33 4.28 33 -10 33 C-10 32.34 -10 31.68 -10 31 C3.2 31 16.4 31 30 31 C30 28.69 30 26.38 30 24 C28.64467163 24.00785522 28.64467163 24.00785522 27.26196289 24.01586914 C23.92048511 24.03287686 20.57905308 24.04543333 17.23754883 24.05493164 C15.78929927 24.05997101 14.34105483 24.06680253 12.89282227 24.07543945 C10.81525412 24.08752247 8.73775303 24.09323211 6.66015625 24.09765625 C5.40855713 24.10289307 4.15695801 24.10812988 2.86743164 24.11352539 C0 24 0 24 -1 23 C-1.0991657 21.37742456 -1.13079777 19.75060169 -1.1328125 18.125 C-1.13410156 17.14015625 -1.13539063 16.1553125 -1.13671875 15.140625 C-1.13285156 14.10421875 -1.12898438 13.0678125 -1.125 12 C-1.12886719 10.96359375 -1.13273437 9.9271875 -1.13671875 8.859375 C-1.13542969 7.87453125 -1.13414062 6.8896875 -1.1328125 5.875 C-1.13168457 4.96492187 -1.13055664 4.05484375 -1.12939453 3.1171875 C-1 1 -1 1 0 0 Z " fill="#EBE4ED" transform="translate(300,769)"/>
<path d="M0 0 C7.92 0 15.84 0 24 0 C23.67 0.66 23.34 1.32 23 2 C15.74 1.67 8.48 1.34 1 1 C1 34 1 67 1 101 C6.94 101 12.88 101 19 101 C19 93.08 19 85.16 19 77 C19.33 77 19.66 77 20 77 C20 85.91 20 94.82 20 104 C12.74 104 5.48 104 -2 104 C-1.01 103.01 -1.01 103.01 0 102 C0.29711822 100.09456252 0.29711822 100.09456252 0.24050903 97.88717651 C0.24325836 97.02618347 0.24600769 96.16519043 0.24884033 95.27810669 C0.24164978 94.33152191 0.23445923 93.38493713 0.22705078 92.40966797 C0.22748886 90.91693359 0.22748886 90.91693359 0.22793579 89.39404297 C0.2265386 86.09333684 0.21095904 82.79285437 0.1953125 79.4921875 C0.19158376 77.208182 0.18873613 74.9241749 0.18673706 72.64016724 C0.1790897 66.6198487 0.15943174 60.59962621 0.1373291 54.5793457 C0.1168944 48.4396291 0.10774043 42.29989703 0.09765625 36.16015625 C0.07618688 24.10672178 0.04099576 12.05338389 0 0 Z " fill="#EEE2EF" transform="translate(429,579)"/>
<path d="M0 0 C0.33 0 0.66 0 1 0 C1 22.44 1 44.88 1 68 C8.26 68 15.52 68 23 68 C23 68.33 23 68.66 23 69 C19.18751574 69.02887236 15.3750593 69.04675492 11.5625 69.0625 C10.47388672 69.07087891 9.38527344 69.07925781 8.26367188 69.08789062 C7.22919922 69.09111328 6.19472656 69.09433594 5.12890625 69.09765625 C4.17056885 69.10289307 3.21223145 69.10812988 2.22485352 69.11352539 C0 69 0 69 -1 68 C-1.12330088 66.1903226 -1.17790183 64.37592163 -1.20532227 62.56225586 C-1.22526749 61.40112778 -1.24521271 60.23999969 -1.26576233 59.04368591 C-1.28247482 57.780168 -1.29918732 56.51665009 -1.31640625 55.21484375 C-1.33718735 53.92888809 -1.35796844 52.64293243 -1.37937927 51.31800842 C-1.43466176 47.89364096 -1.48404361 44.4692125 -1.53222656 41.04473877 C-1.58239665 37.55255686 -1.6381061 34.0604639 -1.69335938 30.56835938 C-1.80101642 23.71231498 -1.90193283 16.8561882 -2 10 C-4.64 15.61 -7.28 21.22 -10 27 C-11.15070112 22.39719553 -10.71341517 21.66758123 -8.69140625 17.578125 C-8.19189453 16.55332031 -7.69238281 15.52851562 -7.17773438 14.47265625 C-6.64470703 13.40917969 -6.11167969 12.34570312 -5.5625 11.25 C-5.03333984 10.17105469 -4.50417969 9.09210937 -3.95898438 7.98046875 C-2.64979906 5.31492028 -1.32985591 2.65528002 0 0 Z " fill="#1A0739" transform="translate(516,615)"/>
<path d="M0 0 C10.23 0 20.46 0 31 0 C31 4.62 31 9.24 31 14 C30.34 14.66 29.68 15.32 29 16 C29 11.38 29 6.76 29 2 C19.76 2 10.52 2 1 2 C1 4.31 1 6.62 1 9 C6.94 9 12.88 9 19 9 C19 9.66 19 10.32 19 11 C12.73 11 6.46 11 0 11 C0 7.37 0 3.74 0 0 Z " fill="#FCFAFC" transform="translate(243,762)"/>
<path d="M0 0 C8.58 0 17.16 0 26 0 C26 18.15 26 36.3 26 55 C25.67 55 25.34 55 25 55 C25 37.84 25 20.68 25 3 C16.42 3 7.84 3 -1 3 C-0.67 2.01 -0.34 1.02 0 0 Z " fill="#E7E1EA" transform="translate(513,577)"/>
<path d="M0 0 C10.23 0 20.46 0 31 0 C31 3.63 31 7.26 31 11 C17.14 11 3.28 11 -11 11 C-11 10.67 -11 10.34 -11 10 C2.30813314 8.64499008 15.64062374 8.90205736 29 9 C28.505 5.535 28.505 5.535 28 2 C14.14 1.505 14.14 1.505 0 1 C0 0.67 0 0.34 0 0 Z " fill="#DBD1DE" transform="translate(439,791)"/>
<path d="M0 0 C8.58 0 17.16 0 26 0 C26.33 1.32 26.66 2.64 27 4 C26.2886792 3.98428955 25.5773584 3.9685791 24.84448242 3.95239258 C21.62556896 3.89008085 18.40678232 3.85102133 15.1875 3.8125 C14.06794922 3.78736328 12.94839844 3.76222656 11.79492188 3.73632812 C10.18520508 3.72182617 10.18520508 3.72182617 8.54296875 3.70703125 C7.55321045 3.6913208 6.56345215 3.67561035 5.54370117 3.65942383 C2.6300787 4.04952877 1.77502198 4.72008288 0 7 C-0.66 6.34 -1.32 5.68 -2 5 C-1.34 3.35 -0.68 1.7 0 0 Z " fill="#EBE2ED" transform="translate(591,577)"/>
<path d="M0 0 C6.6 0 13.2 0 20 0 C20 6.93 20 13.86 20 21 C19.01 21 18.02 21 17 21 C17 14.4 17 7.8 17 1 C11.39 1 5.78 1 0 1 C0 0.67 0 0.34 0 0 Z " fill="#E9E2EB" transform="translate(736,625)"/>
<path d="M0 0 C0.33 0 0.66 0 1 0 C1.01030746 0.58215775 1.02061493 1.16431549 1.03123474 1.76411438 C1.13928566 7.81478134 1.25388492 13.86529895 1.37231445 19.91577148 C1.4156678 22.17485433 1.45734258 24.43397003 1.49731445 26.69311523 C1.55500713 29.93743804 1.61870469 33.1815954 1.68359375 36.42578125 C1.70030624 37.43836502 1.71701874 38.45094879 1.73423767 39.49421692 C1.75418289 40.43496567 1.77412811 41.37571442 1.79467773 42.3449707 C1.81022202 43.17325882 1.8257663 44.00154694 1.84178162 44.85493469 C1.92540723 47.18553247 1.92540723 47.18553247 3 50 C-0.63 50 -4.26 50 -8 50 C-8 48.35 -8 46.7 -8 45 C-7.34 45.66 -6.68 46.32 -6 47 C-4.02 47 -2.04 47 0 47 C0 31.49 0 15.98 0 0 Z " fill="#F0E2F0" transform="translate(359,752)"/>
<path d="M0 0 C5.10774382 0.39290337 8.58040869 2.27078405 12.8984375 4.8125 C15.03315142 6.10086544 15.03315142 6.10086544 17.6875 6.9375 C24.20686091 9.93288204 27.16929381 15.68114347 30.21484375 21.828125 C30.47394531 22.54484375 30.73304688 23.2615625 31 24 C30.67 24.66 30.34 25.32 30 26 C29.57589844 25.35933594 29.15179687 24.71867188 28.71484375 24.05859375 C20.93399875 12.58398498 13.05680888 6.02003663 0 1 C0 0.67 0 0.34 0 0 Z " fill="#271942" transform="translate(722,576)"/>
<path d="M0 0 C8.91 0 17.82 0 27 0 C27.33 2.64 27.66 5.28 28 8 C27.01 8.495 27.01 8.495 26 9 C25.731875 9.763125 25.46375 10.52625 25.1875 11.3125 C23.73714469 14.59488307 21.88973708 15.94676576 19 18 C19 15 19 15 20.8125 12.875 C23.76701406 9.31288443 23.76701406 9.31288443 26 1 C17.42 1 8.84 1 0 1 C0 0.67 0 0.34 0 0 Z " fill="#DCD1E0" transform="translate(708,643)"/>
<path d="M0 0 C0.99 0 1.98 0 3 0 C3.98293267 2.24842091 4.96144466 4.49859547 5.9375 6.75 C6.35418945 7.70132813 6.35418945 7.70132813 6.77929688 8.671875 C8.10720894 11.74367158 9.34366167 14.71000026 10 18 C10.66 18 11.32 18 12 18 C12.33 19.65 12.66 21.3 13 23 C12.34 23.33 11.68 23.66 11 24 C9.16020779 20.3782427 7.32927134 16.75208102 5.5 13.125 C4.97535156 12.09246094 4.45070313 11.05992187 3.91015625 9.99609375 C3.41386719 9.00996094 2.91757812 8.02382813 2.40625 7.0078125 C1.94541016 6.09660645 1.48457031 5.18540039 1.00976562 4.24658203 C0 2 0 2 0 0 Z " fill="#EBE4ED" transform="translate(455,626)"/>
<path d="M0 0 C1.79244141 0.01740234 1.79244141 0.01740234 3.62109375 0.03515625 C5.41740234 0.04869141 5.41740234 0.04869141 7.25 0.0625 C8.17683594 0.07410156 9.10367187 0.08570313 10.05859375 0.09765625 C10.05859375 0.75765625 10.05859375 1.41765625 10.05859375 2.09765625 C6.09859375 2.09765625 2.13859375 2.09765625 -1.94140625 2.09765625 C-1.94140625 10.34765625 -1.94140625 18.59765625 -1.94140625 27.09765625 C-2.27140625 27.09765625 -2.60140625 27.09765625 -2.94140625 27.09765625 C-3.13723208 22.78549144 -3.32167699 18.47291535 -3.50390625 14.16015625 C-3.55998047 12.92845703 -3.61605469 11.69675781 -3.67382812 10.42773438 C-3.72216797 9.25791016 -3.77050781 8.08808594 -3.8203125 6.8828125 C-3.86744385 5.7987915 -3.9145752 4.71477051 -3.96313477 3.59790039 C-3.93154449 -0.03711155 -3.67052247 0.1218633 0 0 Z " fill="#DDD1E2" transform="translate(500.94140625,772.90234375)"/>
<path d="M0 0 C0.185625 0.639375 0.37125 1.27875 0.5625 1.9375 C1.94246056 4.42126213 1.94246056 4.42126213 5.625 4.75 C6.73875 4.8325 7.8525 4.915 9 5 C9.33 3.35 9.66 1.7 10 0 C12 3 12 3 13 8 C9.04 8 5.08 8 1 8 C-1 3 -1 3 0 0 Z " fill="#E8DEEA" transform="translate(606,794)"/>
<path d="M0 0 C0.66 0 1.32 0 2 0 C2.04254356 1.99954746 2.04080783 4.00041636 2 6 C1.67 6.33 1.34 6.66 1 7 C0.91330568 8.4887186 0.89296506 9.981445 0.90234375 11.47265625 C0.90556641 12.37177734 0.90878906 13.27089844 0.91210938 14.19726562 C0.92048828 15.14279297 0.92886719 16.08832031 0.9375 17.0625 C0.94201172 18.01189453 0.94652344 18.96128906 0.95117188 19.93945312 C0.9629989 22.29303065 0.97947975 24.64648477 1 27 C-2.39543895 23.60456105 -2.15713076 19.95899426 -2.1875 15.3125 C-2.15438577 9.91487973 -1.38804977 5.20518663 0 0 Z " fill="#E9E4EC" transform="translate(466,355)"/>
<path d="M0 0 C3.62351253 1.20783751 4.15215236 2.29653142 6.1875 5.4375 C6.71730469 6.24058594 7.24710938 7.04367187 7.79296875 7.87109375 C9 10 9 10 9 12 C4.71 12 0.42 12 -4 12 C-4.33 11.01 -4.66 10.02 -5 9 C-1.7 9 1.6 9 5 9 C3.35 6.03 1.7 3.06 0 0 Z " fill="#E9E2EB" transform="translate(531,790)"/>
<path d="M0 0 C0 1.65 0 3.3 0 5 C-0.66 4.01 -1.32 3.02 -2 2 C-4.97294974 1.66236412 -7.74742502 1.51086962 -10.7265625 1.48828125 C-11.58937836 1.47033005 -12.45219421 1.45237885 -13.34115601 1.43388367 C-16.10238731 1.3796148 -18.86344418 1.34583243 -21.625 1.3125 C-23.49481603 1.2793415 -25.364609 1.24485322 -27.234375 1.20898438 C-31.82279109 1.12387904 -36.41115396 1.05714746 -41 1 C-41 0.67 -41 0.34 -41 0 C-35.48259702 -0.1674126 -29.96505413 -0.32799286 -24.44726562 -0.48217773 C-22.56928117 -0.53562556 -20.69134937 -0.59095705 -18.81347656 -0.64819336 C-16.11795404 -0.7300268 -13.42231625 -0.80513683 -10.7265625 -0.87890625 C-9.88380768 -0.90594131 -9.04105286 -0.93297638 -8.17276001 -0.96083069 C-2.22774341 -1.11387171 -2.22774341 -1.11387171 0 0 Z " fill="#E2D9E4" transform="translate(261,660)"/>
<path d="M0 0 C2 1 2 1 3.125 3.75 C3.91973395 6.70186896 4.17810598 8.97219837 4 12 C2 9 2 9 1 6 C-0.65 10.62 -2.3 15.24 -4 20 C-4.66 20 -5.32 20 -6 20 C-4.22089072 13.24947898 -2.29561809 6.59379663 0 0 Z " fill="#23153D" transform="translate(603,604)"/>
<path d="M0 0 C0 0.66 0 1.32 0 2 C-7.59 2 -15.18 2 -23 2 C-22.67 1.34 -22.34 0.68 -22 0 C-18.70880065 -0.1964031 -15.41703066 -0.38060745 -12.125 -0.5625 C-11.18785156 -0.61857422 -10.25070312 -0.67464844 -9.28515625 -0.73242188 C-8.38925781 -0.78076172 -7.49335938 -0.82910156 -6.5703125 -0.87890625 C-5.74289551 -0.9260376 -4.91547852 -0.97316895 -4.06298828 -1.02172852 C-2 -1 -2 -1 0 0 Z " fill="#FBF7FA" transform="translate(290,681)"/>
<path d="M0 0 C1.24007812 -0.00773437 2.48015625 -0.01546875 3.7578125 -0.0234375 C4.78648437 0.10804688 5.81515625 0.23953125 6.875 0.375 C7.535 1.365 8.195 2.355 8.875 3.375 C2.275 3.375 -4.325 3.375 -11.125 3.375 C-6.66568107 0.0305108 -5.37346537 -0.03365427 0 0 Z " fill="#EFE4F3" transform="translate(511.125,478.625)"/>
<path d="M0 0 C0.66 0 1.32 0 2 0 C1.6631986 3.03121264 1.42035429 4.59414068 -0.8125 6.75 C-3.96717548 9.99480907 -5.32950403 13.84153131 -7 18 C-8 15 -8 15 -6.6015625 11.6796875 C-5.95287044 10.40623054 -5.29356847 9.13813508 -4.625 7.875 C-4.13 6.90626953 -4.13 6.90626953 -3.625 5.91796875 C-1.18313718 1.18313718 -1.18313718 1.18313718 0 0 Z " fill="#281744" transform="translate(442,324)"/>
<path d="M0 0 C3.96 0 7.92 0 12 0 C16 8.75 16 8.75 16 11 C15.34 11 14.68 11 14 11 C13.649375 9.865625 13.29875 8.73125 12.9375 7.5625 C12.19098853 5.60160095 12.19098853 5.60160095 11 4 C7.56592619 3.16417032 7.56592619 3.16417032 4 3 C2.68 2.01 1.36 1.02 0 0 Z " fill="#D5CBDA" transform="translate(579,728)"/>
<path d="M0 0 C4.29 0 8.58 0 13 0 C13 0.99 13 1.98 13 3 C8.38 3 3.76 3 -1 3 C-0.67 2.01 -0.34 1.02 0 0 Z " fill="#E9DFEA" transform="translate(502,412)"/>
<path d="M0 0 C0.33 0 0.66 0 1 0 C1.10143633 6.18761608 0.3401113 10.22772546 -2 16 C-4 13 -4 13 -3.57421875 10.625 C-3.28160156 9.75875 -2.98898437 8.8925 -2.6875 8 C-2.40261719 7.13375 -2.11773438 6.2675 -1.82421875 5.375 C-1.55222656 4.59125 -1.28023437 3.8075 -1 3 C-0.67 2.01 -0.34 1.02 0 0 Z " fill="#EDE4EF" transform="translate(586,590)"/>
<path d="M0 0 C2 4 2 4 1.3203125 6.140625 C0.92585938 6.83671875 0.53140625 7.5328125 0.125 8.25 C-0.26429688 8.95640625 -0.65359375 9.6628125 -1.0546875 10.390625 C-1.36664063 10.92171875 -1.67859375 11.4528125 -2 12 C-2.99 11.34 -3.98 10.68 -5 10 C-3.35 6.7 -1.7 3.4 0 0 Z " fill="#EFE6F0" transform="translate(500,604)"/>
<path d="M0 0 C3.96 0 7.92 0 12 0 C12.33 0.99 12.66 1.98 13 3 C8.71 3 4.42 3 0 3 C0 2.01 0 1.02 0 0 Z " fill="#DDD6E1" transform="translate(805,799)"/>
<path d="M0 0 C0.33 0.66 0.66 1.32 1 2 C1.66 2 2.32 2 3 2 C4.32 5.3 5.64 8.6 7 12 C5.68 12 4.36 12 3 12 C2 8 1 4 0 0 Z " fill="#ECE3EE" transform="translate(217,770)"/>
<path d="M0 0 C0 0.99 0 1.98 0 3 C-1.67894363 4.64387431 -3.49931268 5.98432779 -5.37109375 7.40234375 C-7.2400824 9.2354765 -7.60874966 10.44860693 -8 13 C-8.99 11.35 -9.98 9.7 -11 8 C-10.18595703 7.51080078 -10.18595703 7.51080078 -9.35546875 7.01171875 C-8.28232422 6.35623047 -8.28232422 6.35623047 -7.1875 5.6875 C-6.47980469 5.25824219 -5.77210938 4.82898438 -5.04296875 4.38671875 C-3.11039769 3.07493533 -1.58589388 1.70596155 0 0 Z " fill="#160B33" transform="translate(533,765)"/>
<path d="M0 0 C0.33 0.99 0.66 1.98 1 3 C5.455 2.505 5.455 2.505 10 2 C10.33 2.99 10.66 3.98 11 5 C7.37 5 3.74 5 0 5 C0 3.35 0 1.7 0 0 Z " fill="#E6E1EA" transform="translate(351,797)"/>
<path d="M0 0 C0.66 1.32 1.32 2.64 2 4 C1.34 4 0.68 4 0 4 C0.185625 4.598125 0.37125 5.19625 0.5625 5.8125 C1 8 1 8 0 11 C-0.66 11 -1.32 11 -2 11 C-2.33 11.99 -2.66 12.98 -3 14 C-4.25955231 10.22134307 -3.48087189 8.96588214 -2.0625 5.3125 C-1.68222656 4.31863281 -1.30195313 3.32476563 -0.91015625 2.30078125 C-0.60980469 1.54152344 -0.30945313 0.78226563 0 0 Z " fill="#E9E2ED" transform="translate(215,609)"/>
<path d="M0 0 C0.66 0 1.32 0 2 0 C2.99 3.3 3.98 6.6 5 10 C4.34 10 3.68 10 3 10 C2.67 8.35 2.34 6.7 2 5 C1.34 5 0.68 5 0 5 C0 3.35 0 1.7 0 0 Z " fill="#EAE2EC" transform="translate(627,611)"/>
<path d="M0 0 C0.33 0.99 0.66 1.98 1 3 C-1.10889262 6.82724957 -2.79609368 9.49860488 -7 11 C-6.2884375 9.824375 -6.2884375 9.824375 -5.5625 8.625 C-4.66101977 7.11051322 -3.78820515 5.5764103 -3 4 C-2.34 4 -1.68 4 -1 4 C-0.67 2.68 -0.34 1.36 0 0 Z " fill="#170A32" transform="translate(732,648)"/>
<path d="M0 0 C1.25541557 3.76624671 0.37061958 5.37188934 -1 9 C-1.99 8.67 -2.98 8.34 -4 8 C-3.40138258 5.64828869 -2.73075648 3.3140622 -2 1 C-1.34 0.67 -0.68 0.34 0 0 Z " fill="#ECE5EF" transform="translate(236,610)"/>
<path d="M0 0 C4.97963801 4.81900452 4.97963801 4.81900452 5.0625 9.625 C5.041875 10.73875 5.02125 11.8525 5 13 C4.67 13 4.34 13 4 13 C4 11.35 4 9.7 4 8 C3.34 8 2.68 8 2 8 C1.855625 7.236875 1.71125 6.47375 1.5625 5.6875 C1.0367406 2.91827092 1.0367406 2.91827092 0 0 Z " fill="#F9F6F8" transform="translate(531,737)"/>
<path d="M0 0 C0.66 0 1.32 0 2 0 C0.25 5.75 0.25 5.75 -2 8 C-2.66 7.01 -3.32 6.02 -4 5 C-3.34 4.01 -2.68 3.02 -2 2 C-1.34 2 -0.68 2 0 2 C0 1.34 0 0.68 0 0 Z " fill="#E7DFEB" transform="translate(500,645)"/>
<path d="M0 0 C2.55934601 1.279673 2.6989233 2.24201036 3.6875 4.875 C3.95949219 5.57367187 4.23148438 6.27234375 4.51171875 6.9921875 C5 9 5 9 4 12 C3.67 10.35 3.34 8.7 3 7 C2.01 7 1.02 7 0 7 C0 4.69 0 2.38 0 0 Z " fill="#43265B" transform="translate(238,607)"/>
<path d="M0 0 C2.97 0.495 2.97 0.495 6 1 C6 1.99 6 2.98 6 4 C3.03 3.505 3.03 3.505 0 3 C0 2.01 0 1.02 0 0 Z " fill="#E9E0EC" transform="translate(690,679)"/>
<path d="M0 0 C2.18975773 3.28463659 2.99806563 6.20696275 4 10 C3.34 10 2.68 10 2 10 C1.67 8.35 1.34 6.7 1 5 C0.34 5 -0.32 5 -1 5 C-0.67 3.35 -0.34 1.7 0 0 Z " fill="#EDE6F0" transform="translate(265,614)"/>
<path d="M0 0 C1.32 0.66 2.64 1.32 4 2 C2.02 3.98 0.04 5.96 -2 8 C-2.66 7.67 -3.32 7.34 -4 7 C-3.34 6.401875 -2.68 5.80375 -2 5.1875 C0.3373846 3.12498166 0.3373846 3.12498166 0 0 Z " fill="#EDE1EF" transform="translate(672,589)"/>
<path d="M0 0 C1.10844919 3.32534757 0.84454356 5.62182575 0 9 C-0.66 9 -1.32 9 -2 9 C-1.125 1.125 -1.125 1.125 0 0 Z " fill="#261342" transform="translate(433,343)"/>
<path d="M0 0 C0.99 0 1.98 0 3 0 C3 0.66 3 1.32 3 2 C4.98 2 6.96 2 9 2 C8.01 3.485 8.01 3.485 7 5 C4.69 4.34 2.38 3.68 0 3 C0 2.01 0 1.02 0 0 Z " fill="#ECE6EF" transform="translate(529,290)"/>
<path d="M0 0 C2.79579355 1.39789678 3.59807058 3.2628997 5 6 C4.67 6.66 4.34 7.32 4 8 C3.34 8 2.68 8 2 8 C1.01 5.69 0.02 3.38 -1 1 C-0.67 0.67 -0.34 0.34 0 0 Z " fill="#EEE6F0" transform="translate(468,650)"/>
<path d="M0 0 C0.33 0 0.66 0 1 0 C1.25 3.3125 1.25 3.3125 1 7 C-0.32 7.99 -1.64 8.98 -3 10 C-2.01 6.7 -1.02 3.4 0 0 Z " fill="#E7DFE9" transform="translate(661,604)"/>
<path d="M0 0 C0.598125 0.309375 1.19625 0.61875 1.8125 0.9375 C4.08956772 2.10209704 4.08956772 2.10209704 7 3 C4 5 4 5 1 5 C0.67 3.35 0.34 1.7 0 0 Z " fill="#E6E0EA" transform="translate(260,746)"/>
<path d="M0 0 C0.99 0.495 0.99 0.495 2 1 C2.75 3.375 2.75 3.375 3 6 C2.34 6.99 1.68 7.98 1 9 C-0.4783226 6.04335481 -0.06032783 3.25770263 0 0 Z " fill="#EAE3EC" transform="translate(644,657)"/>
<path d="M0 0 C0.99 0 1.98 0 3 0 C2.34 2.97 1.68 5.94 1 9 C-1.08954032 4.82091936 -1.16552619 4.19589427 0 0 Z " fill="#EDE2EE" transform="translate(200,651)"/>
<path d="M0 0 C1.25541557 3.76624671 0.37061958 5.37188934 -1 9 C-3 6 -3 6 -2.75 3.375 C-2.5025 2.59125 -2.255 1.8075 -2 1 C-1.34 0.67 -0.68 0.34 0 0 Z " fill="#EDE5EF" transform="translate(599,613)"/>
<path d="M0 0 C0.99 0.33 1.98 0.66 3 1 C2.02391783 3.92824652 0.89213369 5.61426621 -1 8 C-1.33 6.35 -1.66 4.7 -2 3 C-1.34 3 -0.68 3 0 3 C0 2.01 0 1.02 0 0 Z " fill="#EEE6EF" transform="translate(238,602)"/>
</svg>
